<svg class="ldi-gfoopo" width="227px"  height="227px"  xmlns="http://www.w3.org/2000/svg" xmlns:xlink="http://www.w3.org/1999/xlink" viewBox="0 0 100 100" preserveAspectRatio="xMidYMid" style="background: none;"><!--?xml version="1.0" encoding="utf-8"?--><!--Generator: Adobe Illustrator 21.0.0, SVG Export Plug-In . SVG Version: 6.00 Build 0)--><svg version="1.1" id="Layer_1" xmlns="http://www.w3.org/2000/svg" xmlns:xlink="http://www.w3.org/1999/xlink" x="0px" y="0px" viewBox="0 0 100 100" style="transform-origin: 50px 50px 0px;" xml:space="preserve"><g style="transform-origin: 50px 50px 0px;"><g fill="rgba(0%,0%,0%,0.982)" style="fill: rgba(0, 0, 0, 0.98); transform-origin: 50px 50px 0px; transform: scale(0.6);"><g class="ld ld-cycle" style="transform-origin: 50px 50px 0px; animation-duration: 1.2s; animation-delay: -1.2s; animation-direction: normal;"><g fill="rgba(0%,0%,0%,0.982)" style="fill: rgba(0, 0, 0, 0.98);"><style type="text/css" style="transform-origin: 50px 50px 0px;">.st0{fill:#F4E6C8;} .st1{opacity:0.8;fill:#849B87;} .st2{fill:#D65A62;} .st3{fill:#E15C64;} .st4{fill:#F47E5F;} .st5{fill:#F7B26A;} .st6{fill:#FEE8A2;} .st7{fill:#ACBD81;} .st8{fill:#F5E169;} .st9{fill:#F0AF6B;} .st10{fill:#EA7C60;} .st11{fill:#A8B980;} .st12{fill:#829985;} .st13{fill:#798AAE;} .st14{fill:#8672A7;} .st15{fill:#CC5960;} .st16{fill:#E17A5F;} .st17{fill:#849B87;} .st18{opacity:0.8;fill:#E15C64;} .st19{opacity:0.8;fill:#F7B26A;} .st20{fill:#79A5B5;} .st21{opacity:0.8;fill:#79A5B4;} .st22{fill:#666766;}</style><g style="transform-origin: 50px 50px 0px;"><path class="st2" d="M50,27.5L50,27.5c-2.2,0-4-1.8-4-4v-12c0-2.2,1.8-4,4-4h0c2.2,0,4,1.8,4,4v12C54,25.7,52.2,27.5,50,27.5z" fill="#cccccc" style="fill: rgb(204, 204, 204);"></path></g><g style="transform-origin: 50px 50px 0px;"><path class="st10" d="M34.1,34.1L34.1,34.1c-1.6,1.6-4.1,1.6-5.7,0l-8.5-8.5c-1.6-1.6-1.6-4.1,0-5.7l0,0c1.6-1.6,4.1-1.6,5.7,0 l8.5,8.5C35.7,30,35.7,32.5,34.1,34.1z" fill="#cccccc" style="fill: rgb(204, 204, 204);"></path></g><g style="transform-origin: 50px 50px 0px;"><path class="st9" d="M27.5,50L27.5,50c0,2.2-1.8,4-4,4h-12c-2.2,0-4-1.8-4-4v0c0-2.2,1.8-4,4-4h12C25.7,46,27.5,47.8,27.5,50z" fill="#cccccc" style="fill: rgb(204, 204, 204);"></path></g><g style="transform-origin: 50px 50px 0px;"><path class="st11" d="M34.1,65.9L34.1,65.9c1.6,1.6,1.6,4.1,0,5.7l-8.5,8.5c-1.6,1.6-4.1,1.6-5.7,0l0,0c-1.6-1.6-1.6-4.1,0-5.7 l8.5-8.5C30,64.3,32.5,64.3,34.1,65.9z" fill="#cccccc" style="fill: rgb(204, 204, 204);"></path></g><g style="transform-origin: 50px 50px 0px;"><path class="st2" d="M50,72.5L50,72.5c2.2,0,4,1.8,4,4v12c0,2.2-1.8,4-4,4h0c-2.2,0-4-1.8-4-4v-12C46,74.3,47.8,72.5,50,72.5z" fill="#cccccc" style="fill: rgb(204, 204, 204);"></path></g><g style="transform-origin: 50px 50px 0px;"><path class="st10" d="M65.9,65.9L65.9,65.9c1.6-1.6,4.1-1.6,5.7,0l8.5,8.5c1.6,1.6,1.6,4.1,0,5.7l0,0c-1.6,1.6-4.1,1.6-5.7,0 l-8.5-8.5C64.3,70,64.3,67.5,65.9,65.9z" fill="#cccccc" style="fill: rgb(204, 204, 204);"></path></g><g style="transform-origin: 50px 50px 0px;"><path class="st9" d="M72.5,50L72.5,50c0-2.2,1.8-4,4-4h12c2.2,0,4,1.8,4,4v0c0,2.2-1.8,4-4,4h-12C74.3,54,72.5,52.2,72.5,50z" fill="#cccccc" style="fill: rgb(204, 204, 204);"></path></g><g style="transform-origin: 50px 50px 0px;"><path class="st11" d="M65.9,34.1L65.9,34.1c-1.6-1.6-1.6-4.1,0-5.7l8.5-8.5c1.6-1.6,4.1-1.6,5.7,0l0,0c1.6,1.6,1.6,4.1,0,5.7 l-8.5,8.5C70,35.7,67.5,35.7,65.9,34.1z" fill="#cccccc" style="fill: rgb(204, 204, 204);"></path></g><metadata xmlns:d="https://loading.io/stock/" style="transform-origin: 50px 50px 0px;">
<d:name style="transform-origin: 50px 50px 0px;">spinner</d:name>
<d:tags style="transform-origin: 50px 50px 0px;">loader,preloader,ajax spin,loading icon,spinner,spinner</d:tags>
<d:license style="transform-origin: 50px 50px 0px;">cc0</d:license>
<d:slug style="transform-origin: 50px 50px 0px;">gfoopo</d:slug>
</metadata></g></g></g></g><style type="text/css" style="transform-origin: 50px 50px 0px;">path,ellipse,circle,rect,polygon,polyline,line { stroke-width: 0; }@keyframes ld-cycle {
  0%, 50%, 100% {
    animation-timing-function: cubic-bezier(0.5, 0.5, 0.5, 0.5);
  }
  0% {
    -webkit-transform: rotate(0);
    transform: rotate(0);
  }
  50% {
    -webkit-transform: rotate(180deg);
    transform: rotate(180deg);
  }
  100% {
    -webkit-transform: rotate(360deg);
    transform: rotate(360deg);
  }
}
@-webkit-keyframes ld-cycle {
  0%, 50%, 100% {
    animation-timing-function: cubic-bezier(0.5, 0.5, 0.5, 0.5);
  }
  0% {
    -webkit-transform: rotate(0);
    transform: rotate(0);
  }
  50% {
    -webkit-transform: rotate(180deg);
    transform: rotate(180deg);
  }
  100% {
    -webkit-transform: rotate(360deg);
    transform: rotate(360deg);
  }
}
.ld.ld-cycle {
  -webkit-animation: ld-cycle 1s infinite linear;
  animation: ld-cycle 1s infinite linear;
}
</style></svg></svg>